<?xml version="1.0" encoding="UTF-8" standalone="no"?>
<!-- Created with Inkscape (http://www.inkscape.org/) -->

<svg
   width="600"
   height="800"
   viewBox="0 0 158.75001 211.66667"
   version="1.1"
   id="svg5"
   xml:space="preserve"
   inkscape:version="1.2.2 (732a01da63, 2022-12-09)"
   sodipodi:docname="mary_queen_of_heaven.svg"
   xmlns:inkscape="http://www.inkscape.org/namespaces/inkscape"
   xmlns:sodipodi="http://sodipodi.sourceforge.net/DTD/sodipodi-0.dtd"
   xmlns="http://www.w3.org/2000/svg"
   xmlns:svg="http://www.w3.org/2000/svg"><sodipodi:namedview
     id="namedview7"
     pagecolor="#ffffff"
     bordercolor="#000000"
     borderopacity="0.25"
     inkscape:showpageshadow="2"
     inkscape:pageopacity="0.0"
     inkscape:pagecheckerboard="0"
     inkscape:deskcolor="#d1d1d1"
     inkscape:document-units="mm"
     showgrid="false"
     inkscape:zoom="0.70956439"
     inkscape:cx="346.69158"
     inkscape:cy="831.49606"
     inkscape:window-width="1909"
     inkscape:window-height="2013"
     inkscape:window-x="1912"
     inkscape:window-y="36"
     inkscape:window-maximized="0"
     inkscape:current-layer="layer1" /><defs
     id="defs2" /><g
     inkscape:label="Layer 1"
     inkscape:groupmode="layer"
     id="layer1"
     transform="translate(-228.712,10.265683)"><path
       id="path1642"
       style="color:#000000;fill:#000000;-inkscape-stroke:none"
       d="m 308.36902,26.509073 c -0.1987,1.56e-4 -0.3141,0.08237 -0.39429,0.144694 -0.0803,0.06238 -0.1357,0.123974 -0.18966,0.191202 -0.10791,0.134456 -0.20397,0.291031 -0.30644,0.476457 -0.20494,0.370852 -0.42512,0.855295 -0.63872,1.384928 -0.4272,1.059266 -0.82482,2.269022 -0.92966,3.107304 l -0.13642,1.09399 -0.9555,-0.05684 c -0.88519,-0.05251 -1.56629,0.0032 -2.11098,0.347783 -0.54469,0.344514 -0.82659,0.940797 -0.97876,1.673799 -0.0484,0.233105 -0.0844,0.415275 -0.10335,0.581877 -0.0189,0.166601 -0.0614,0.339159 0.0935,0.586011 0.0775,0.123426 0.22661,0.227546 0.35346,0.26355 0.12685,0.036 0.22517,0.03 0.30851,0.01964 0.16667,-0.02072 0.29773,-0.06572 0.46302,-0.118856 0.30116,-0.09683 1.09493,-0.265867 1.6428,-0.337964 0.53195,-0.07 0.96014,0.07113 1.32601,0.396358 0.36586,0.325232 0.66432,0.858726 0.80099,1.58595 0.0942,0.501391 0.034,1.76203 -0.13488,2.851505 -0.0844,0.544739 -0.19269,1.060328 -0.30282,1.437639 -0.0551,0.188656 -0.11289,0.343091 -0.15813,0.439249 -0.0143,0.03032 -0.0247,0.04027 -0.0367,0.05581 -0.0209,0.0074 -0.0366,0.01439 -0.0651,0.02067 -0.0973,0.02146 -0.23623,0.04325 -0.39843,0.06253 -0.32438,0.03856 -0.74167,0.06433 -1.15445,0.06615 -0.7036,0.0031 -1.05803,-0.02834 -1.25936,-0.107487 -0.20132,-0.07916 -0.36077,-0.226693 -0.70331,-0.636654 l -1.64641,-1.970422 -0.0217,2.120801 c -0.005,0.451056 -0.0926,0.642611 -0.34158,0.836124 -0.24901,0.193514 -0.74848,0.373007 -1.55701,0.484209 -0.66335,0.09123 -1.01139,0.101542 -1.14412,0.07028 -0.13272,-0.03126 -0.17349,-0.06739 -0.3948,-0.353466 -0.27207,-0.351692 -0.70228,-1.219615 -1.0232,-2.074292 -0.32092,-0.854677 -0.54312,-1.767767 -0.54312,-2.070158 0,-0.858378 0.77109,-1.578198 1.834,-1.578198 0.33164,0 0.61367,-0.02889 0.86713,-0.109554 0.25347,-0.08067 0.50662,-0.228849 0.64441,-0.499712 0.13778,-0.270862 0.0976,-0.587875 -0.0114,-0.829923 -0.10904,-0.242049 -0.27939,-0.455603 -0.50385,-0.680062 -0.31491,-0.314912 -0.69339,-0.563305 -1.14101,-0.566374 -0.44763,-0.0031 -0.848,0.181294 -1.39217,0.465088 -0.15496,0.08081 -0.27791,0.133351 -0.40049,0.187586 -0.0212,-0.04403 -0.0348,-0.071 -0.0589,-0.12144 -0.14159,-0.296132 -0.32911,-0.696625 -0.52917,-1.127063 -0.41407,-0.890874 -0.94037,-1.757698 -1.41593,-2.390552 -0.23778,-0.316426 -0.45657,-0.571305 -0.678,-0.759643 -0.11072,-0.09417 -0.21707,-0.176307 -0.37878,-0.234094 -0.16171,-0.05779 -0.47934,-0.05565 -0.66973,0.132808 -0.16316,0.161496 -0.1947,0.286266 -0.24805,0.437183 -0.0533,0.150915 -0.0997,0.322337 -0.14262,0.51573 -0.0858,0.386787 -0.15906,0.861163 -0.21705,1.363225 -0.11599,1.004123 -0.17584,2.085446 -0.078,2.798795 0.0326,0.237637 0.0503,0.396283 0.0625,0.533301 -0.56112,-0.120358 -1.1244,-0.112539 -1.59938,0.0801 -0.51267,0.207921 -0.94977,0.611769 -1.08986,1.169954 -0.0724,0.288319 -0.10985,0.544395 -0.0997,0.784965 0.0101,0.240571 0.0633,0.48865 0.25579,0.693498 0.19247,0.204847 0.51335,0.274698 0.7581,0.232544 0.24475,-0.04215 0.45406,-0.153463 0.67541,-0.308509 0.7643,-0.535331 1.6305,-0.441584 2.26963,0.248047 0.65729,0.709221 0.96503,1.796615 0.9865,4.034896 l 0.0114,1.203027 -1.37873,0.537435 -1.40043,0.546737 -0.71107,-0.687813 -1.78697,-1.734261 v 2.3828 c 0,0.506342 -0.0398,0.740546 -0.10335,0.861446 -0.0635,0.1209 -0.20025,0.245416 -0.58601,0.480591 -0.0366,0.02234 -0.0693,0.04096 -0.10542,0.06253 l -2.31046,-4.773352 c 1.07841,-1.146553 0.87504,-3.090539 -0.30075,-4.429704 -0.4779,-0.544292 -1.37179,-1.114041 -2.24018,-1.59215 -0.43419,-0.239055 -0.85315,-0.443305 -1.20716,-0.577743 -0.177,-0.06722 -0.33365,-0.117598 -0.49609,-0.144694 -0.0812,-0.01355 -0.16374,-0.02451 -0.26768,-0.01395 -0.10395,0.01056 -0.25138,0.04262 -0.38499,0.176217 -5.2e-4,5.21e-4 -0.10092,0.14544 -0.10129,0.146244 -3.7e-4,8.05e-4 -0.0309,0.07909 -0.0372,0.109554 -0.0127,0.06093 -0.0107,0.09849 -0.01,0.128675 0.002,0.05067 0.008,0.0768 0.0134,0.101802 0.39256,1.185799 4.70068,10.786752 5.53351,12.492261 l 2.74971,8.626864 0.23047,0.742073 c 0.16159,0.621622 0.68081,1.055491 1.36323,1.478463 1.85503,1.342806 5.46675,2.315803 10.20713,2.886645 0.9695,0.136222 1.97262,0.252953 3.00188,0.345716 1.4738,0.132825 3.45481,0.174667 5.53713,0.148311 h 0.14056 0.002 c 5.45967,-1.3e-5 10.40002,-0.542173 14.01361,-1.433504 1.8068,-0.445665 3.28096,-0.973862 4.34392,-1.593701 1.06297,-0.619839 1.7929,-1.375085 1.79317,-2.318205 v -0.0021 c -2.2e-4,-0.07067 -0.0149,-0.14074 -0.0238,-0.21084 l 2.75022,-10.322367 2.59364,-5.613094 c 1.07527,-1.985529 1.76332,-3.484806 2.46859,-4.779554 0.0735,-0.135887 0.12873,-0.24636 0.17001,-0.373103 0.0206,-0.06337 0.0511,-0.120219 0.0393,-0.271302 -0.006,-0.07554 -0.0277,-0.195504 -0.13488,-0.314709 -0.10722,-0.119204 -0.28995,-0.174676 -0.40204,-0.171566 -0.13482,0.0039 -0.16078,0.02417 -0.21291,0.04082 -0.0521,0.01665 -0.105,0.03496 -0.16433,0.05839 -0.11867,0.04687 -0.26261,0.110131 -0.42943,0.186035 -0.33363,0.151806 -0.75547,0.356723 -1.19373,0.581877 -1.24318,0.638662 -2.16817,1.461011 -2.68149,2.388484 -0.51332,0.927473 -0.58629,1.992468 -0.092,2.916101 0.0462,0.08641 0.11312,0.141917 0.16226,0.217041 l -1.90221,3.906222 c -0.32411,-0.211102 -0.54368,-0.387579 -0.63665,-0.88315 l -0.37517,-2.005563 -1.32033,1.53479 c -0.15456,0.179676 -0.26289,0.298709 -0.33383,0.357601 -0.0709,0.05889 -0.0868,0.06452 -0.15038,0.07597 -0.12718,0.02289 -0.52787,-0.02357 -1.33429,-0.185519 -1.17874,-0.236719 -1.69704,-0.434538 -1.83968,-0.611332 -0.0713,-0.0884 -0.11976,-0.210131 -0.13642,-0.486275 -0.0167,-0.276144 0.0106,-0.68139 0.0661,-1.222665 0.13977,-1.364205 0.42419,-2.299803 0.79892,-2.841687 0.37473,-0.541882 0.79317,-0.749825 1.4981,-0.749825 0.195,0 0.77079,0.18165 0.98805,0.33383 0.28025,0.196292 0.42449,0.381725 0.83613,0.36897 0.20582,-0.0064 0.42251,-0.151163 0.51728,-0.276986 0.0948,-0.125823 0.13401,-0.231715 0.17776,-0.345715 0.13874,-0.361546 0.2375,-0.680949 0.1664,-1.035079 -0.0711,-0.35413 -0.29063,-0.612582 -0.55707,-0.879016 -0.22498,-0.224987 -0.49455,-0.341091 -0.79478,-0.4377 -0.30022,-0.09661 -0.62837,-0.156062 -0.95292,-0.156062 h -0.46508 l -0.0977,-2.222604 c -0.033,-0.753802 -0.0894,-1.464269 -0.154,-2.011763 -0.0323,-0.273748 -0.0661,-0.504708 -0.10387,-0.691431 -0.0188,-0.09336 -0.0369,-0.176068 -0.0625,-0.255798 -0.0256,-0.07973 -0.0171,-0.147497 -0.17156,-0.300757 -0.16659,-0.165262 -0.44898,-0.210274 -0.62529,-0.170016 -0.17632,0.04026 -0.29713,0.11866 -0.41599,0.207223 -0.23771,0.177127 -0.46007,0.421712 -0.70073,0.730188 -0.48132,0.616951 -1.00849,1.48456 -1.44953,2.433443 -0.20007,0.430465 -0.38977,0.831039 -0.53123,1.127063 -0.0299,0.06255 -0.047,0.09788 -0.0724,0.150379 -0.17193,-0.0587 -0.38132,-0.135953 -0.62115,-0.236162 -0.64418,-0.269159 -1.17252,-0.417506 -1.69344,-0.277502 -0.52091,0.140003 -0.86773,0.577544 -1.11104,1.11156 -0.0789,0.173251 -0.14713,0.3087 -0.18965,0.491959 -0.0213,0.09163 -0.039,0.204628 -0.008,0.345716 0.0315,0.141089 0.1339,0.293992 0.24598,0.377238 0.22416,0.166494 0.40115,0.163003 0.60151,0.17725 0.20036,0.01425 0.43543,0.01395 0.74414,0.01395 0.49305,0 0.76872,0.03792 0.94361,0.111104 0.17488,0.07319 0.31083,0.190993 0.5426,0.484725 0.29274,0.37098 0.42652,0.853399 0.36329,1.56838 -0.0632,0.714981 -0.34155,1.639524 -0.85525,2.761588 l -0.5488,1.20096 -0.99425,-0.142627 c -0.79265,-0.114099 -1.25763,-0.28013 -1.54099,-0.509529 -0.28337,-0.229399 -0.45902,-0.557851 -0.60927,-1.189592 l -0.57257,-2.403987 -1.17151,2.396236 -0.42788,0.873332 -1.89653,0.07183 c -0.63977,0.0242 -1.11393,0.03579 -1.43143,0.0062 -0.3175,-0.02963 -0.44427,-0.08627 -0.5333,-0.167948 -0.089,-0.08168 -0.18948,-0.252643 -0.28732,-0.617534 -0.0978,-0.36489 -0.18722,-0.89706 -0.30283,-1.614888 -0.30334,-1.883588 0.019,-3.271367 0.60358,-3.957381 0.29231,-0.343007 0.63633,-0.530148 1.06867,-0.57981 0.43234,-0.04966 0.96938,0.05045 1.59732,0.375171 l 1.57251,0.812353 V 35.29611 c 0,-0.957691 -0.50722,-1.758862 -1.26349,-2.160075 -0.74236,-0.393836 -1.69524,-0.41629 -2.65048,-0.05684 -0.0449,-0.116501 -0.14793,-0.451726 -0.28319,-1.175639 -0.17218,-0.921483 -0.60169,-2.173763 -1.04489,-3.23236 -0.2216,-0.5293 -0.44503,-1.004202 -0.65061,-1.367359 -0.10279,-0.181579 -0.19954,-0.335603 -0.30644,-0.466638 -0.0534,-0.06552 -0.1084,-0.124623 -0.18759,-0.185518 -0.0791,-0.06084 -0.19037,-0.14247 -0.38809,-0.142627 z m -28.58379,39.910225 c -1.44639,-0.0091 -2.86165,0.02459 -4.03903,0.08992 -1.17738,0.06534 -2.09221,0.152462 -2.64842,0.294556 -0.72585,0.185429 -1.6582,0.742889 -2.33577,1.328601 l -2.13682,1.847432 3.34553,-0.01964 c 1.77378,-0.0107 2.87703,0.197559 3.78323,0.818555 0.90621,0.620996 1.67932,1.719599 2.63085,3.609082 0.63069,1.252374 1.29982,2.790264 1.80661,4.100008 0.2534,0.654871 0.46627,1.253519 0.6134,1.72651 0.14714,0.47299 0.21859,0.865453 0.21859,0.904337 0,-0.05523 -0.004,0.04545 -0.0191,0.156063 -0.0154,0.110606 -0.0393,0.265103 -0.0703,0.458887 -0.0621,0.387568 -0.15475,0.931354 -0.27182,1.605586 -0.23415,1.348465 -0.569,3.222099 -0.97255,5.445146 -0.8071,4.446093 -1.88755,10.289356 -2.97863,16.127179 -1.09107,5.83783 -2.19349,11.67064 -3.04477,16.09774 -0.42564,2.21355 -0.78748,4.0758 -1.05472,5.41001 -0.13361,0.6671 -0.24487,1.20261 -0.32608,1.58181 -0.0406,0.1896 -0.0726,0.33945 -0.0977,0.44545 -0.0251,0.10601 -0.0609,0.20744 -0.0331,0.13901 -0.14455,0.35567 -0.73374,1.38313 -1.23868,2.11719 l -1.48829,2.16369 h 5.5237 c 1.26507,0 2.41287,-0.0277 3.25561,-0.0739 0.42137,-0.0231 0.76451,-0.0493 1.01958,-0.0822 0.12754,-0.0165 0.23036,-0.0334 0.33228,-0.0605 0.051,-0.0135 0.10074,-0.0255 0.17777,-0.0667 0.0385,-0.0206 0.0856,-0.0481 0.14624,-0.11317 0.0607,-0.0651 0.14056,-0.1936 0.14056,-0.35347 0,-0.28485 -0.10239,-0.40944 -0.20309,-0.55655 -0.1007,-0.1471 -0.22475,-0.28513 -0.3731,-0.40825 0.0314,0.0261 -0.17403,-0.21459 -0.34365,-0.50798 -0.16962,-0.29339 -0.35872,-0.66595 -0.51573,-1.03094 l -0.54105,-1.2578 0.98857,-5.21881 c 0.48007,-2.53482 0.76118,-3.96164 0.94516,-4.7072 0.24882,0.30923 0.58082,0.71909 0.99632,1.2361 0.8725,1.08567 2.06126,2.56715 3.35742,4.18165 2.22599,2.7727 3.62864,4.62726 4.408,5.8751 0.38969,0.62392 0.62093,1.09756 0.72657,1.43195 0.10564,0.3344 0.0891,0.50223 0.045,0.61702 -0.035,0.0913 -0.0679,0.21274 -0.047,0.36535 0.0209,0.15261 0.11597,0.31411 0.22273,0.40618 0.21352,0.18413 0.40704,0.20689 0.6506,0.24236 0.48712,0.071 1.23109,0.0816 2.50011,0.0816 h 4.15995 l -3.15846,-3.43132 c -3.21023,-3.48856 -5.84015,-6.37714 -7.66568,-8.41602 -0.91277,-1.01944 -1.62542,-1.8264 -2.10582,-2.38694 -0.10863,-0.12675 -0.15952,-0.19215 -0.24391,-0.293 0.17169,-0.013 0.31319,-0.0331 0.52141,-0.0331 2.19685,0 5.02606,-0.94889 6.53707,-2.24224 1.68003,-1.43804 2.58596,-3.59618 2.71302,-5.74799 0.12705,-2.1518 -0.52526,-4.32817 -2.05673,-5.78517 -1.41056,-1.34196 -3.31426,-1.96154 -6.70708,-2.28152 l -1.75597,-0.16588 1.48673,-7.790738 c 0.43679,-2.288298 0.85744,-4.391976 1.18339,-5.935555 0.13071,-0.618937 0.23151,-1.066225 0.32608,-1.478979 0.20431,0.406301 0.45002,0.888716 0.77722,1.514119 0.74409,1.422254 1.76973,3.339669 2.89698,5.413623 2.25209,4.143424 6.70212,12.35369 9.89035,18.2423 1.59441,2.9449 3.10155,5.71596 4.24419,7.80884 1.14263,2.09287 1.89021,3.45569 2.07015,3.75377 l 0.36122,0.60152 -4.87877,9.76788 c -5.86866,11.74976 -7.62868,14.80075 -9.70897,16.94883 l -2.38487,2.46083 5.72679,0.10749 c 1.25656,0.0235 2.42154,0.0511 3.28507,0.078 0.43177,0.0135 0.78893,0.0275 1.04128,0.0393 0.12617,0.006 0.22721,0.0108 0.29455,0.0155 0.0337,0.002 0.0579,0.005 0.0703,0.006 0.0124,0.001 0.0408,0.0158 -0.0486,-0.0119 0.0663,0.0206 0.17148,0.0462 0.31626,0 0.14478,-0.0462 0.27862,-0.19148 0.32246,-0.30075 0.0877,-0.21855 0.0336,-0.29136 0.0176,-0.35554 -0.032,-0.12837 -0.0717,-0.20642 -0.12506,-0.31057 -0.10675,-0.2083 -0.2666,-0.4696 -0.4687,-0.7674 -0.33121,-0.48807 -0.61909,-1.36242 -0.61909,-1.58388 0,-0.38207 0.21729,-1.35693 0.57981,-2.43189 0.36252,-1.07497 0.86132,-2.29074 1.387,-3.3321 l 0.70486,-1.3963 h 7.37113 7.38508 l 1.37873,2.52336 c 0.64824,1.18632 1.01583,1.92152 1.21284,2.48047 0.19702,0.55894 0.23977,0.94352 0.23461,1.55495 -0.009,1.02468 -0.15461,1.52503 -0.54312,2.05052 -0.17959,0.24291 -0.34209,0.48134 -0.46508,0.67799 -0.0615,0.0983 -0.11194,0.18435 -0.154,0.26562 -0.021,0.0406 -0.0406,0.0801 -0.0589,0.12661 -0.0183,0.0466 -0.0465,0.0813 -0.0465,0.23047 0,6.6e-4 0.0308,0.17556 0.031,0.17622 2.5e-4,6.6e-4 0.0441,0.0918 0.0682,0.12454 0.0482,0.0654 0.0911,0.0985 0.12506,0.12144 0.068,0.0461 0.10732,0.0555 0.13901,0.0661 0.0634,0.0215 0.10069,0.0277 0.14417,0.0351 0.087,0.0146 0.18239,0.0253 0.30283,0.0351 0.24088,0.0197 0.57219,0.037 0.9803,0.0512 0.81621,0.0283 1.93425,0.045 3.16415,0.045 h 5.55883 l -1.56631,-1.78542 c -1.12997,-1.28696 -2.27661,-3.26402 -6.44767,-11.22463 -2.01618,-3.84791 -4.47963,-8.53719 -5.47822,-10.42366 -0.99663,-1.88272 -2.14813,-4.083 -2.55075,-4.87515 l -0.62735,-1.23249 7.38715,-14.58982 c 5.73874,-11.33574 8.76728,-17.303864 10.38282,-20.355342 0.66125,-1.248968 0.96992,-1.762882 1.23404,-2.185397 0.0404,0.182673 0.0759,0.335326 0.12505,0.567924 0.16751,0.794408 0.38085,1.855744 0.60927,3.029273 0.45685,2.347057 0.97528,5.147941 1.32033,7.185608 l 0.32815,1.92598 -1.75597,4.665864 c -3.43877,9.14765 -5.87719,15.51032 -7.58196,19.75385 -0.85239,2.12176 -1.52004,3.71402 -2.03709,4.85551 -0.51705,1.14149 -0.89894,1.84617 -1.10122,2.11926 l -1.27744,1.72444 h 4.34185 4.47828 l -1.34772,-1.47846 c -0.81353,-0.89319 -1.11297,-1.39053 -1.0449,-2.42001 0.0681,-1.02948 0.60661,-2.62955 1.69137,-5.3728 l 1.65623,-4.18941 2.17816,0.15038 c 1.41121,0.0978 3.34309,0.17777 4.33979,0.17777 h 1.34927 l 0.81442,4.20284 c 0.49335,2.54534 0.71626,3.88865 0.63872,4.75992 -0.0775,0.87128 -0.41153,1.36341 -1.2206,2.42414 l -1.33222,1.74563 h 5.59398 c 1.26513,0 2.4145,-0.0166 3.25406,-0.0465 0.41978,-0.0149 0.75998,-0.0341 1.00769,-0.0548 0.12386,-0.0104 0.22336,-0.0197 0.31265,-0.0351 0.0446,-0.008 0.0837,-0.0148 0.14831,-0.0372 0.0323,-0.0112 0.0703,-0.0208 0.13849,-0.0682 0.0341,-0.0237 0.0779,-0.058 0.12506,-0.1235 0.0236,-0.0328 0.0665,-0.12384 0.0667,-0.12454 2.5e-4,-7e-4 0.0289,-0.1714 0.0289,-0.17209 0,-0.19033 -0.0357,-0.20326 -0.0563,-0.25218 -0.0206,-0.0489 -0.0428,-0.0935 -0.0687,-0.14263 -0.0516,-0.0981 -0.11808,-0.21227 -0.19895,-0.34519 -0.16176,-0.26583 -0.37914,-0.60054 -0.61909,-0.9493 -0.44976,-0.65369 -0.97776,-1.60223 -1.1038,-1.93373 0.007,0.0171 -0.0371,-0.12745 -0.0817,-0.31471 -0.0445,-0.18727 -0.1005,-0.44358 -0.16795,-0.75758 -0.1349,-0.62799 -0.31085,-1.48871 -0.51573,-2.51767 -0.40975,-2.05793 -0.93396,-4.78922 -1.47278,-7.69514 -1.07836,-5.81578 -3.01269,-16.22688 -4.2969,-23.136586 -0.64191,-3.453768 -1.22639,-6.660604 -1.65054,-9.041309 -0.21207,-1.190353 -0.38292,-2.17408 -0.50178,-2.878894 -0.0594,-0.352408 -0.10547,-0.634578 -0.13643,-0.836125 -0.031,-0.201545 -0.0442,-0.392212 -0.0434,-0.302307 v -0.0021 c 3.1e-4,0.02555 0.0179,-0.140095 0.0723,-0.342098 0.0544,-0.202003 0.13796,-0.466706 0.24237,-0.773079 0.20884,-0.612747 0.50327,-1.389995 0.83199,-2.205034 0.65743,-1.630076 1.4613,-3.422812 1.9823,-4.345988 0.83437,-1.478429 1.70551,-2.424048 2.73834,-2.972428 1.03283,-0.54838 2.26182,-0.721071 3.87883,-0.548804 l 2.9006,0.308509 -2.33216,-2.041219 c -0.81253,-0.711383 -1.55518,-1.17681 -2.67787,-1.413868 -1.12269,-0.237056 -2.6072,-0.280266 -5.08754,-0.281119 l -4.79713,-0.0021 v 1.431437 c 0,0.445418 -0.2436,1.309258 -2.15232,5.339725 -1.90872,4.030466 -5.44753,11.199626 -11.94914,24.324614 -3.0732,6.203943 -5.80191,11.630803 -7.77731,15.484333 -0.9877,1.92676 -1.78658,3.46142 -2.34559,4.49999 -0.20013,0.3718 -0.33023,0.59734 -0.46509,0.8356 -0.10899,-0.1949 -0.21195,-0.37825 -0.35553,-0.64233 -0.41809,-0.769 -0.96289,-1.796 -1.53324,-2.89285 -1.14345,-2.199 -2.81969,-5.41032 -3.72432,-7.13859 -8.44305,-16.130057 -13.531,-25.922546 -16.48065,-31.797028 -1.47482,-2.937241 -2.41509,-4.895864 -2.96881,-6.167582 -0.27686,-0.635859 -0.45679,-1.101768 -0.55656,-1.418001 -0.0998,-0.316233 -0.0889,-0.505451 -0.10335,-0.433566 l 0.28112,-1.41025 -2.51561,-0.05839 c -0.413,-0.0097 -0.82868,-0.01704 -1.2423,-0.01964 z m 25.29665,2.062406 0.25786,0.677995 0.27751,0.732255 c -0.0406,-0.106696 0.0144,0.08381 0.0331,0.300757 0.0187,0.216953 0.0359,0.520231 0.0527,0.892452 0.0336,0.744441 0.0628,1.766455 0.0858,2.970878 0.046,2.408846 0.0704,5.551114 0.0723,8.701278 0.002,3.150164 -0.0194,6.30879 -0.0625,8.755538 -0.0216,1.223374 -0.0489,2.269916 -0.0817,3.043225 -0.0164,0.386654 -0.0341,0.706562 -0.0527,0.941544 -0.0186,0.234984 -0.0523,0.415643 -0.045,0.390158 l -0.43976,1.535306 3.40444,0.101803 c 0.76096,0.02243 1.46097,0.03747 1.97869,0.04651 0.25885,0.0045 0.47254,0.0075 0.62684,0.0078 0.0772,1.72e-4 0.13974,-3.48e-4 0.18965,-0.0015 0.025,-5.77e-4 0.046,-4.42e-4 0.0703,-0.0021 0.0122,-7.88e-4 0.0251,-0.0016 0.045,-0.0041 0.01,-0.0012 0.0206,-0.0021 0.0388,-0.0057 0.0181,-0.0036 0.0913,-0.02712 0.092,-0.02739 6.8e-4,-2.73e-4 0.11256,-0.06415 0.11317,-0.0646 6.1e-4,-4.52e-4 0.0631,-0.05134 0.0858,-0.07803 0.0454,-0.05337 0.0702,-0.104318 0.0863,-0.144694 0.0323,-0.08075 0.0342,-0.129061 0.0367,-0.167949 0.005,-0.07778 -7.5e-4,-0.119558 -0.008,-0.161747 -0.0127,-0.08438 -0.0336,-0.158729 -0.0589,-0.248047 -0.0506,-0.178637 -0.125,-0.399503 -0.21859,-0.63872 0.011,0.02813 -0.0241,-0.09376 -0.047,-0.265617 -0.0229,-0.171861 -0.0475,-0.411906 -0.0703,-0.711068 -0.0456,-0.598322 -0.0874,-1.439255 -0.1266,-2.509924 -0.0784,-2.141338 -0.1436,-5.20633 -0.19172,-9.153964 -0.12412,-10.182254 -0.0459,-12.181426 0.25424,-13.033312 l 0.66198,-1.878956 h -3.52175 z m 29.27935,36.225696 c 0.0363,0.17871 0.0586,0.28391 0.0997,0.48938 0.25074,1.25391 0.58563,2.97371 0.94362,4.85551 0.35835,1.88359 0.69937,3.66874 0.96273,5.0271 0.26337,1.35834 0.43795,2.2498 0.49196,2.48254 l 0.006,0.0294 h -3.68195 c -1.17838,0 -2.23804,-0.0269 -2.98793,-0.0687 -0.24254,-0.0135 -0.3869,-0.0285 -0.555,-0.0444 0.0214,-0.0582 0.0188,-0.0506 0.045,-0.12144 0.14767,-0.40121 0.35399,-0.96561 0.60565,-1.6521 0.50333,-1.37298 1.18436,-3.234 1.92185,-5.25188 0.7368,-2.016 1.41621,-3.83913 1.91616,-5.15059 0.0965,-0.25312 0.14994,-0.38257 0.23203,-0.5948 z m -50.53283,0.46354 v 5.1e-4 c 1.68533,0 2.87066,0.20507 3.75739,0.65785 0.88674,0.45277 1.51941,1.15607 2.1115,2.29701 0.64984,1.25222 0.69403,3.43107 0.15606,4.45917 -0.57262,1.09431 -2.04744,2.42336 -3.39049,3.00964 -1.14744,0.50089 -4.1575,0.86958 -5.68958,0.66198 -0.1988,-0.0269 -0.32579,-0.0518 -0.41186,-0.0724 0.009,-0.0809 0.0256,-0.18978 0.0625,-0.36897 0.10702,-0.51888 0.56622,-2.90476 1.0294,-5.33974 0.46272,-2.43247 0.92318,-4.7713 0.98805,-5.04879 0.0285,-0.12192 0.0546,-0.1718 0.0548,-0.17208 1.9e-4,-2.8e-4 -0.0306,0.0135 0.0253,-0.006 0.11173,-0.0383 0.53721,-0.0786 1.3069,-0.0786 z m 25.11888,24.04505 c 0.0638,0.10224 0.0974,0.14749 0.18345,0.29508 0.37914,0.65013 0.98278,1.75496 1.93011,3.52175 0.67526,1.25936 1.97698,3.65883 2.89802,5.33765 0.45856,0.83584 0.87695,1.61405 1.1777,2.1916 0.0756,0.14519 0.11817,0.23209 0.17777,0.34933 -0.33934,0.0164 -0.75618,0.0321 -1.31413,0.045 -1.26513,0.0294 -3.01596,0.047 -4.9413,0.047 h -6.18981 l 2.55282,-4.90823 c 1.61454,-3.10336 3.10215,-6.00283 3.37137,-6.58823 0.0533,-0.11594 0.1011,-0.19102 0.154,-0.29094 z"
       sodipodi:nodetypes="ssssscccssscssssssssscsssssccssssssssscsssccsssssccsscscsssssccccccsssccsssssssccccccccsccsssssccccscscsssssscccccssssscssssssssssccscssssssscsssscsssssscccsccccccscsssccsscssscssscsscccsssscccssssssscccssccsssscsscccsssscsscsccsscsssscccscssssccsccccccscssscssssccccscssssscscccccsccsscccsccscccsscccccscccsccsccscccssscsscsscssssssssccssssscccsccssssscsscssscccscccssscccscccsssscsssscscscsscsccccccssccssccssscccsssscccsssccccsssccsccsccsss" /><path
       sodipodi:type="star"
       style="fill:#000000;stroke:none;stroke-width:1.5;stroke-linecap:round;stroke-dasharray:none;stroke-opacity:1;paint-order:markers stroke fill"
       id="path1395"
       inkscape:flatsided="false"
       sodipodi:sides="6"
       sodipodi:cx="604.63855"
       sodipodi:cy="-229.83115"
       sodipodi:r1="53.273479"
       sodipodi:r2="30.683813"
       sodipodi:arg1="0"
       sodipodi:arg2="0.52359878"
       inkscape:rounded="0"
       inkscape:randomized="0"
       d="m 657.91203,-229.83115 -26.70052,15.34191 0.0638,30.79428 -26.63674,-15.45237 -26.63674,15.45237 0.0638,-30.79428 -26.70052,-15.34191 26.70052,-15.3419 -0.0638,-30.79428 26.63674,15.45237 26.63674,-15.45237 -0.0638,30.79428 z"
       transform="matrix(0.26458333,0,0,0.26458333,127.99933,74.516162)"
       inkscape:transform-center-x="2.0154619e-06" /><path
       sodipodi:type="star"
       style="fill:#000000;stroke:none;stroke-width:1.5;stroke-linecap:round;stroke-dasharray:none;stroke-opacity:1;paint-order:markers stroke fill"
       id="path1395-6"
       inkscape:flatsided="false"
       sodipodi:sides="6"
       sodipodi:cx="604.63855"
       sodipodi:cy="-229.83115"
       sodipodi:r1="53.273479"
       sodipodi:r2="30.683813"
       sodipodi:arg1="0"
       sodipodi:arg2="0.52359878"
       inkscape:rounded="0"
       inkscape:randomized="0"
       d="m 657.91203,-229.83115 -26.70052,15.34191 0.0638,30.79428 -26.63674,-15.45237 -26.63674,15.45237 0.0638,-30.79428 -26.70052,-15.34191 26.70052,-15.3419 -0.0638,-30.79428 26.63674,15.45237 26.63674,-15.45237 -0.0638,30.79428 z"
       transform="matrix(0.26458333,0,0,0.26458333,103.51578,103.49189)"
       inkscape:transform-center-x="2.0154619e-06" /><path
       sodipodi:type="star"
       style="fill:#000000;stroke:none;stroke-width:1.5;stroke-linecap:round;stroke-dasharray:none;stroke-opacity:1;paint-order:markers stroke fill"
       id="path1395-7"
       inkscape:flatsided="false"
       sodipodi:sides="6"
       sodipodi:cx="604.63855"
       sodipodi:cy="-229.83115"
       sodipodi:r1="53.273479"
       sodipodi:r2="30.683813"
       sodipodi:arg1="0"
       sodipodi:arg2="0.52359878"
       inkscape:rounded="0"
       inkscape:randomized="0"
       d="m 657.91203,-229.83115 -26.70052,15.34191 0.0638,30.79428 -26.63674,-15.45237 -26.63674,15.45237 0.0638,-30.79428 -26.70052,-15.34191 26.70052,-15.3419 -0.0638,-30.79428 26.63674,15.45237 26.63674,-15.45237 -0.0638,30.79428 z"
       transform="matrix(0.26458333,0,0,0.26458333,93.620356,138.87336)"
       inkscape:transform-center-x="2.0154619e-06" /><path
       sodipodi:type="star"
       style="fill:#000000;stroke:none;stroke-width:1.5;stroke-linecap:round;stroke-dasharray:none;stroke-opacity:1;paint-order:markers stroke fill"
       id="path1395-8"
       inkscape:flatsided="false"
       sodipodi:sides="6"
       sodipodi:cx="604.63855"
       sodipodi:cy="-229.83115"
       sodipodi:r1="53.273479"
       sodipodi:r2="30.683813"
       sodipodi:arg1="0"
       sodipodi:arg2="0.52359878"
       inkscape:rounded="0"
       inkscape:randomized="0"
       d="m 657.91203,-229.83115 -26.70052,15.34191 0.0638,30.79428 -26.63674,-15.45237 -26.63674,15.45237 0.0638,-30.79428 -26.70052,-15.34191 26.70052,-15.3419 -0.0638,-30.79428 26.63674,15.45237 26.63674,-15.45237 -0.0638,30.79428 z"
       transform="matrix(0.26458333,0,0,0.26458333,93.050835,172.11912)"
       inkscape:transform-center-x="2.0154619e-06" /><path
       sodipodi:type="star"
       style="fill:#000000;stroke:none;stroke-width:1.5;stroke-linecap:round;stroke-dasharray:none;stroke-opacity:1;paint-order:markers stroke fill"
       id="path1395-5"
       inkscape:flatsided="false"
       sodipodi:sides="6"
       sodipodi:cx="604.63855"
       sodipodi:cy="-229.83115"
       sodipodi:r1="53.273479"
       sodipodi:r2="30.683813"
       sodipodi:arg1="0"
       sodipodi:arg2="0.52359878"
       inkscape:rounded="0"
       inkscape:randomized="0"
       d="m 657.91203,-229.83115 -26.70052,15.34191 0.0638,30.79428 -26.63674,-15.45237 -26.63674,15.45237 0.0638,-30.79428 -26.70052,-15.34191 26.70052,-15.3419 -0.0638,-30.79428 26.63674,15.45237 26.63674,-15.45237 -0.0638,30.79428 z"
       transform="matrix(0.26458333,0,0,0.26458333,103.58697,208.49724)"
       inkscape:transform-center-x="2.0154619e-06" /><path
       sodipodi:type="star"
       style="fill:#000000;stroke:none;stroke-width:1.5;stroke-linecap:round;stroke-dasharray:none;stroke-opacity:1;paint-order:markers stroke fill"
       id="path1395-0"
       inkscape:flatsided="false"
       sodipodi:sides="6"
       sodipodi:cx="604.63855"
       sodipodi:cy="-229.83115"
       sodipodi:r1="53.273479"
       sodipodi:r2="30.683813"
       sodipodi:arg1="0"
       sodipodi:arg2="0.52359878"
       inkscape:rounded="0"
       inkscape:randomized="0"
       d="m 657.91203,-229.83115 -26.70052,15.34191 0.0638,30.79428 -26.63674,-15.45237 -26.63674,15.45237 0.0638,-30.79428 -26.70052,-15.34191 26.70052,-15.3419 -0.0638,-30.79428 26.63674,15.45237 26.63674,-15.45237 -0.0638,30.79428 z"
       transform="matrix(0.26458333,0,0,0.26458333,127.98614,238.06014)"
       inkscape:transform-center-x="2.0154619e-06" /><path
       sodipodi:type="star"
       style="fill:#000000;stroke:none;stroke-width:1.5;stroke-linecap:round;stroke-dasharray:none;stroke-opacity:1;paint-order:markers stroke fill"
       id="path1395-4"
       inkscape:flatsided="false"
       sodipodi:sides="6"
       sodipodi:cx="604.63855"
       sodipodi:cy="-229.83115"
       sodipodi:r1="53.273479"
       sodipodi:r2="30.683813"
       sodipodi:arg1="0"
       sodipodi:arg2="0.52359878"
       inkscape:rounded="0"
       inkscape:randomized="0"
       d="m 657.91203,-229.83115 -26.70052,15.34191 0.0638,30.79428 -26.63674,-15.45237 -26.63674,15.45237 0.0638,-30.79428 -26.70052,-15.34191 26.70052,-15.3419 -0.0638,-30.79428 26.63674,15.45237 26.63674,-15.45237 -0.0638,30.79428 z"
       transform="matrix(-0.26458333,0,0,0.26458333,488.17466,74.694137)"
       inkscape:transform-center-x="-6.0771481e-06" /><path
       sodipodi:type="star"
       style="fill:#000000;stroke:none;stroke-width:1.5;stroke-linecap:round;stroke-dasharray:none;stroke-opacity:1;paint-order:markers stroke fill"
       id="path1395-6-8"
       inkscape:flatsided="false"
       sodipodi:sides="6"
       sodipodi:cx="604.63855"
       sodipodi:cy="-229.83115"
       sodipodi:r1="53.273479"
       sodipodi:r2="30.683813"
       sodipodi:arg1="0"
       sodipodi:arg2="0.52359878"
       inkscape:rounded="0"
       inkscape:randomized="0"
       d="m 657.91203,-229.83115 -26.70052,15.34191 0.0638,30.79428 -26.63674,-15.45237 -26.63674,15.45237 0.0638,-30.79428 -26.70052,-15.34191 26.70052,-15.3419 -0.0638,-30.79428 26.63674,15.45237 26.63674,-15.45237 -0.0638,30.79428 z"
       transform="matrix(-0.26458333,0,0,0.26458333,512.65822,103.66986)"
       inkscape:transform-center-x="-6.077148e-06" /><path
       sodipodi:type="star"
       style="fill:#000000;stroke:none;stroke-width:1.5;stroke-linecap:round;stroke-dasharray:none;stroke-opacity:1;paint-order:markers stroke fill"
       id="path1395-7-0"
       inkscape:flatsided="false"
       sodipodi:sides="6"
       sodipodi:cx="604.63855"
       sodipodi:cy="-229.83115"
       sodipodi:r1="53.273479"
       sodipodi:r2="30.683813"
       sodipodi:arg1="0"
       sodipodi:arg2="0.52359878"
       inkscape:rounded="0"
       inkscape:randomized="0"
       d="m 657.91203,-229.83115 -26.70052,15.34191 0.0638,30.79428 -26.63674,-15.45237 -26.63674,15.45237 0.0638,-30.79428 -26.70052,-15.34191 26.70052,-15.3419 -0.0638,-30.79428 26.63674,15.45237 26.63674,-15.45237 -0.0638,30.79428 z"
       transform="matrix(-0.26458333,0,0,0.26458333,522.55364,139.05134)"
       inkscape:transform-center-x="-6.077148e-06" /><path
       sodipodi:type="star"
       style="fill:#000000;stroke:none;stroke-width:1.5;stroke-linecap:round;stroke-dasharray:none;stroke-opacity:1;paint-order:markers stroke fill"
       id="path1395-8-5"
       inkscape:flatsided="false"
       sodipodi:sides="6"
       sodipodi:cx="604.63855"
       sodipodi:cy="-229.83115"
       sodipodi:r1="53.273479"
       sodipodi:r2="30.683813"
       sodipodi:arg1="0"
       sodipodi:arg2="0.52359878"
       inkscape:rounded="0"
       inkscape:randomized="0"
       d="m 657.91203,-229.83115 -26.70052,15.34191 0.0638,30.79428 -26.63674,-15.45237 -26.63674,15.45237 0.0638,-30.79428 -26.70052,-15.34191 26.70052,-15.3419 -0.0638,-30.79428 26.63674,15.45237 26.63674,-15.45237 -0.0638,30.79428 z"
       transform="matrix(-0.26458333,0,0,0.26458333,523.12316,172.2971)"
       inkscape:transform-center-x="-6.0771481e-06" /><path
       sodipodi:type="star"
       style="fill:#000000;stroke:none;stroke-width:1.5;stroke-linecap:round;stroke-dasharray:none;stroke-opacity:1;paint-order:markers stroke fill"
       id="path1395-5-6"
       inkscape:flatsided="false"
       sodipodi:sides="6"
       sodipodi:cx="604.63855"
       sodipodi:cy="-229.83115"
       sodipodi:r1="53.273479"
       sodipodi:r2="30.683813"
       sodipodi:arg1="0"
       sodipodi:arg2="0.52359878"
       inkscape:rounded="0"
       inkscape:randomized="0"
       d="m 657.91203,-229.83115 -26.70052,15.34191 0.0638,30.79428 -26.63674,-15.45237 -26.63674,15.45237 0.0638,-30.79428 -26.70052,-15.34191 26.70052,-15.3419 -0.0638,-30.79428 26.63674,15.45237 26.63674,-15.45237 -0.0638,30.79428 z"
       transform="matrix(-0.26458333,0,0,0.26458333,512.58703,208.67522)"
       inkscape:transform-center-x="-6.077148e-06" /><path
       sodipodi:type="star"
       style="fill:#000000;stroke:none;stroke-width:1.5;stroke-linecap:round;stroke-dasharray:none;stroke-opacity:1;paint-order:markers stroke fill"
       id="path1395-0-7"
       inkscape:flatsided="false"
       sodipodi:sides="6"
       sodipodi:cx="604.63855"
       sodipodi:cy="-229.83115"
       sodipodi:r1="53.273479"
       sodipodi:r2="30.683813"
       sodipodi:arg1="0"
       sodipodi:arg2="0.52359878"
       inkscape:rounded="0"
       inkscape:randomized="0"
       d="m 657.91203,-229.83115 -26.70052,15.34191 0.0638,30.79428 -26.63674,-15.45237 -26.63674,15.45237 0.0638,-30.79428 -26.70052,-15.34191 26.70052,-15.3419 -0.0638,-30.79428 26.63674,15.45237 26.63674,-15.45237 -0.0638,30.79428 z"
       transform="matrix(-0.26458333,0,0,0.26458333,488.18786,238.23812)"
       inkscape:transform-center-x="-6.0771481e-06" /></g></svg>
